<svg width="41" height="41" xmlns="http://www.w3.org/2000/svg" xmlns:xlink="http://www.w3.org/1999/xlink" xml:space="preserve" overflow="hidden"><g><path d="M16.7417 12.4708C17.0833 12.1292 17.2969 11.6594 17.2969 11.1469 17.2969 10.6344 17.0833 10.1646 16.7417 9.82292L10.8479 3.97188C10.5063 3.63021 10.0365 3.41667 9.56667 3.41667 9.09688 3.41667 8.58438 3.63021 8.24271 3.97188L7.60208 4.6125 16.101 13.1115 16.7417 12.4708Z" fill="#FFFFFF"/><path d="M25.326 27.5469C25.1552 27.7177 24.899 27.8031 24.6854 27.8031 24.4719 27.8031 24.2156 27.7177 24.0448 27.5469L13.4531 16.9979C13.2823 16.8271 13.1969 16.5708 13.1969 16.3573 13.1969 16.1437 13.2823 15.8875 13.4531 15.7167L14.7771 14.4354 6.27813 5.93646C5.72292 6.49167 5.21042 7.00417 4.86875 7.34583 4.01458 8.15729 3.50208 9.225 3.45938 10.3781 3.33125 12.3 3.80104 14.1365 4.44167 15.9302 5.125 17.5104 6.02188 19.0052 7.00417 20.4146 10.5063 25.6677 14.9052 30.2375 20.0302 33.8677 20.8844 34.5083 21.7812 35.0635 22.7208 35.576 24.8563 36.6438 27.1198 37.4125 29.5542 37.5833 31.1771 37.7115 32.8 37.0708 33.9104 35.875L35.0635 34.7219 26.6073 26.2229 25.326 27.5469Z" fill="#FFFFFF"/><path d="M37.0281 30.1521 31.1344 24.2583C30.7927 23.9167 30.3229 23.7031 29.8104 23.7031 29.2979 23.7031 28.8281 23.9167 28.4865 24.2583L27.8458 24.9417 36.3448 33.4406 36.9854 32.8C37.3271 32.4583 37.5406 31.9885 37.5406 31.476 37.5406 30.9635 37.3698 30.4938 37.0281 30.1521Z" fill="#FFFFFF"/></g></svg>