<svg width="41" height="41" xmlns="http://www.w3.org/2000/svg" xmlns:xlink="http://www.w3.org/1999/xlink" xml:space="preserve" overflow="hidden"><g><path d="M22.849 33.9531C25.625 30.5365 28.7 26.2229 28.999 21.3542L34.124 21.3542C33.7396 27.7177 28.999 32.8854 22.849 33.9531ZM6.87604 21.3542 12.001 21.3542C12.3427 26.2229 15.375 30.5365 18.151 33.9531 12.001 32.8854 7.26042 27.7177 6.87604 21.3542ZM18.151 7.04688C15.375 10.4635 12.3 14.7771 12.001 19.6458L6.87604 19.6458C7.26042 13.2823 12.001 8.11458 18.151 7.04688ZM21.3542 21.3542 27.2906 21.3542C26.949 25.7531 24.0875 29.725 21.3542 33.099L21.3542 21.3542ZM19.6458 21.3542 19.6458 33.099C16.9125 29.725 14.051 25.7531 13.7094 21.3542L19.6458 21.3542ZM21.3542 7.90104C24.0875 11.275 26.949 15.2042 27.2906 19.6458L21.3542 19.6458 21.3542 7.90104ZM19.6458 19.6458 13.7094 19.6458C14.051 15.2469 16.9125 11.275 19.6458 7.90104L19.6458 19.6458ZM34.124 19.6458 28.999 19.6458C28.7 14.7771 25.625 10.4635 22.849 7.04688 28.999 8.11458 33.7396 13.2823 34.124 19.6458ZM20.5 4.27083C11.5312 4.27083 4.27083 11.5312 4.27083 20.5 4.27083 29.4688 11.5312 36.7292 20.5 36.7292 29.4688 36.7292 36.7292 29.4688 36.7292 20.5 36.7292 11.5312 29.4688 4.27083 20.5 4.27083Z" fill="#FFFFFF"/></g></svg>