<svg width="41" height="41" xmlns="http://www.w3.org/2000/svg" xmlns:xlink="http://www.w3.org/1999/xlink" xml:space="preserve" overflow="hidden"><g><path d="M35.0208 35.7042 26.4792 27.5896 35.0208 19.475 35.0208 35.7042ZM7.34583 36.7292 15.8021 28.7427 16.4 28.1875C18.7062 26.0094 22.3365 26.0094 24.6427 28.1875L25.2406 28.7427 33.6542 36.7292 7.34583 36.7292ZM5.97917 19.4323 14.5208 27.5469 5.97917 35.6615 5.97917 19.4323ZM11.9583 8.54167 29.0417 8.54167 29.0417 22.7635 25.1979 26.4365C22.4219 24.301 18.5781 24.301 15.8021 26.4365L11.9583 22.7635 11.9583 8.54167ZM31.6042 9.69479 31.6042 5.97917 25.625 5.97917 20.5 1.70833 15.375 5.97917 9.39583 5.97917 9.39583 9.7375 3.41667 15.4177 3.41667 39.2917 37.5833 39.2917 37.5833 15.4177 31.6042 9.69479Z" fill="#FFFFFF"/><path d="M20.5 18.0656C19.7313 18.0656 19.1333 17.425 19.1333 16.699 19.1333 15.9302 19.774 15.3323 20.5 15.3323 21.2687 15.3323 21.8667 15.9302 21.8667 16.699 21.8667 17.4677 21.2687 18.0656 20.5 18.0656ZM20.5 22.2083C21.4823 22.2083 22.4219 21.9521 23.276 21.525 23.6177 21.3115 23.7458 20.8844 23.575 20.5427 23.3615 20.201 22.9344 20.0729 22.5927 20.2438 21.9521 20.5854 21.226 20.7563 20.5 20.7563 18.2365 20.7563 16.3573 18.8771 16.4 16.6135 16.4 14.35 18.2792 12.4708 20.5427 12.4708 22.8063 12.4708 24.6854 14.3073 24.6854 16.6135L24.6854 17.9802C23.9167 17.9802 23.3188 17.3823 23.3188 16.6135 23.3188 15.2469 22.3792 14.0938 21.0552 13.8375 19.7313 13.5813 18.4073 14.3073 17.9375 15.5458 17.4677 16.7844 17.9375 18.2365 19.0906 18.9198 20.2438 19.6031 21.7385 19.3896 22.6354 18.3646 23.1479 18.9625 23.9167 19.3042 24.7281 19.3042 25.4969 19.3042 26.0948 18.7062 26.0948 17.9375L26.0948 16.5708C26.0948 13.4958 23.6177 11.0188 20.5427 11.0188 17.4677 11.0188 14.9906 13.4958 14.9906 16.5708 14.9479 19.6885 17.425 22.1656 20.5 22.2083Z" fill="#FFFFFF"/></g></svg>