<svg width="41" height="41" xmlns="http://www.w3.org/2000/svg" xmlns:xlink="http://www.w3.org/1999/xlink" xml:space="preserve" overflow="hidden"><g><path d="M20.5 18.7917C18.3646 18.7917 16.6562 17.0833 16.6562 14.9479 16.6562 12.8125 18.3646 11.1042 20.5 11.1042 22.6354 11.1042 24.3438 12.8125 24.3438 14.9479 24.3438 17.0833 22.6354 18.7917 20.5 18.7917ZM20.5 5.97917C17.5531 5.97917 14.7771 7.43125 13.1115 9.90833 11.4458 12.3427 11.1042 15.4604 12.1719 18.2365L16.2292 27.2052 19.7313 34.551C19.8594 34.85 20.1583 35.0208 20.5 35.0208 20.8417 35.0208 21.1406 34.85 21.2687 34.551L24.7708 27.2052 28.8281 18.2365C29.8958 15.4604 29.5542 12.3427 27.8885 9.90833 26.2229 7.43125 23.4469 5.97917 20.5 5.97917Z" fill="#FFFFFF"/></g></svg>